# xmcd CD database file
#
# Track frame offsets:
#	150
#	19177
#	46302
#	75275
#	101055
#	124427
#	148437
#	176057
#	193170
#	217660
#
# Disc length: 3350 seconds
#
# Revision: 1
# Processed by: cddbd v1.4PL0 Copyright (c) Steve Scherf et al.
# Submitted via: CDex 1.51
#
DISCID=8e0d140a
DTITLE=tino izzo - Four September Suns
DYEAR=1994
DGENRE=New Age
TTITLE0=Nostalgia Trails
TTITLE1=A Hero's Good-bye
TTITLE2=Worlds Away
TTITLE3=A New Order
TTITLE4=Four September Suns
TTITLE5=The Rage
TTITLE6=The Field of Blue Children
TTITLE7=No Sign of Yesterday
TTITLE8=Open City
TTITLE9=Beyond those Walls
EXTD=YEAR: 1994
EXTT0=
EXTT1=
EXTT2=
EXTT3=
EXTT4=
EXTT5=
EXTT6=
EXTT7=
EXTT8=
EXTT9=
PLAYORDER=
